# xmcd
#
# Track frame offsets:
#	150
#	13391
#	29633
#	44089
#	53259
#	71639
#	88069
#	108744
#	124485
#	140600
#
# Disc length: 2110 seconds
#
# Revision: 0
# Processed by: cddbd v1.5.1PL2 Copyright (c) Steve Scherf et al.
# Submitted via: dBpowerAMP V4.0
#
DISCID=9a083c0a
DTITLE=Dark Horses - Dark Horses
DYEAR=2005
DGENRE=Country
TTITLE0=The Worst Thing
TTITLE1=World of Wonder
TTITLE2=If it's all the Same
TTITLE3=Miss Fortune
TTITLE4=Blood and Veins
TTITLE5=Lonesome Again
TTITLE6=For You
TTITLE7=(I Pity) The Poor Bastard
TTITLE8=A Small Thing
TTITLE9=Like I Do
EXTD=\n
EXTT0=
EXTT1=
EXTT2=
EXTT3=
EXTT4=
EXTT5=
EXTT6=
EXTT7=
EXTT8=
EXTT9=
PLAYORDER=
